<?xml version="1.0" encoding="UTF-8"?>
<!DOCTYPE svg PUBLIC "-//W3C//DTD SVG 1.1//EN" "http://www.w3.org/Graphics/SVG/1.1/DTD/svg11.dtd">
<svg version="1.1" xmlns="http://www.w3.org/2000/svg" xmlns:xlink="http://www.w3.org/1999/xlink" x="0" y="0" width="507" height="580" viewBox="0, 0, 507, 580">
  <g id="Layer_1">
    <path d="M501.238,326.114 C501.238,463.13 390.16,574.208 253.144,574.208 C116.128,574.208 5.05,463.13 5.05,326.114 C5.05,189.098 116.128,78.02 253.144,78.02 C390.16,78.02 501.238,189.098 501.238,326.114" fill="#F1AA45"/>
    <path d="M253.144,80.81 C117.883,80.81 7.84,190.853 7.84,326.114 C7.84,461.375 117.883,571.418 253.144,571.418 C388.405,571.418 498.448,461.375 498.448,326.114 C498.448,190.853 388.405,80.81 253.144,80.81 M253.144,576.998 C114.805,576.998 2.26,464.453 2.26,326.114 C2.26,187.775 114.805,75.23 253.144,75.23 C391.483,75.23 504.028,187.775 504.028,326.114 C504.028,464.453 391.483,576.998 253.144,576.998" fill="#0B0B09"/>
    <path d="M399.065,550.932 C396.508,550.932 393.359,550.39 389.377,549.539 L382.895,540.773 C402.321,528.987 420.023,514.645 435.539,498.208 L437.914,500.417 C443.293,511.34 439.104,515.428 431.592,515.428 C430.092,515.428 428.46,515.265 426.745,514.961 C426.745,514.961 434.071,534.797 430.408,538.46 C428.606,540.26 426.307,540.909 423.929,540.909 C417.756,540.91 411.041,536.534 411.04,536.534 C408.243,547.42 405.57,550.932 399.065,550.932 M370.993,547.557 C372.101,546.964 373.192,546.371 374.291,545.762 C373.265,546.472 372.164,547.078 370.993,547.557 M466.991,195.033 C466.28,193.879 465.553,192.718 464.825,191.575 C464.917,191.566 465.01,191.56 465.104,191.56 C465.582,191.56 466.074,191.695 466.633,192.032 C467.279,192.418 467.364,193.495 466.991,195.033 M460.864,185.558 C442.228,158.107 418.293,134.518 390.549,116.289 C399.338,99.74 405.105,83.544 406.009,70.892 C412.372,72.62 416.125,87.074 416.125,87.074 C421.639,75.763 420.834,64.459 426.028,64.459 C426.277,64.459 426.539,64.485 426.817,64.538 C432.883,65.69 433.747,83.312 433.747,83.312 C433.747,83.312 442.426,72.46 444.181,72.46 C444.219,72.46 444.254,72.465 444.286,72.476 C447.328,73.493 448.768,85.625 447.436,91.655 C452.525,87.367 453.794,84.858 456.948,84.858 C457.196,84.858 457.457,84.873 457.732,84.905 C461.485,85.337 456.715,108.449 454.114,111.923 C460.053,108.831 462.376,106.524 464.224,106.524 C464.624,106.524 465.003,106.632 465.391,106.865 C467.551,108.161 460.045,134.747 458.02,137.636 L470.44,134.45 C470.44,134.45 462.934,161.9 458.596,167.102 C460.16,166.83 461.486,166.71 462.605,166.71 C470.993,166.71 467.839,173.456 467.839,173.456 C467.839,173.456 464.152,179.908 460.864,185.558" fill="#A6A29D"/>
    <path d="M358.326,547.706 C358.323,547.705 358.321,547.704 358.318,547.703 L298.918,446.003 C284.545,440.126 155.746,414.368 128.638,359.963 C106.678,315.908 136.108,277.145 85.006,271.7 C85.006,271.7 72.298,273.284 60.445,273.716 C60.445,273.716 66.025,265.238 74.899,253.781 C72.581,249.73 75.368,243.375 80.316,243.375 C80.92,243.375 81.554,243.47 82.216,243.674 C82.216,234.422 88.48,219.023 110.719,216.8 C111.948,216.677 113.15,216.618 114.322,216.618 C135.203,216.618 147.279,235.415 157.726,248.291 C170.101,263.546 196.633,284.507 219.502,293.372 C275.419,260.432 297.946,218.627 308.35,196.667 C336.035,190.979 368.202,156.002 387.859,121.197 C415.575,139.48 439.379,163.225 457.727,190.894 C456.903,192.274 456.277,193.291 455.995,193.688 C456.24,193.698 456.477,193.703 456.707,193.703 C457.737,193.703 458.624,193.605 459.4,193.452 C461.082,196.059 462.712,198.691 464.297,201.364 C461.319,206.795 456.353,213.458 450.793,218.249 C458.092,218.321 462.592,218.699 463.411,219.887 C464.23,221.057 453.97,235.583 445.879,239.048 C448.192,244.394 453.25,241.649 453.97,245.402 C454.699,249.164 442.99,259.559 434.611,262.448 C438.076,264.041 445.879,265.481 446.176,266.786 C446.464,268.082 435.196,276.515 424.504,280.844 C427.591,282.482 434.854,286.433 435.286,288.17 C435.701,289.831 424.152,296.437 412.867,296.438 C412.41,296.438 411.955,296.427 411.499,296.405 C414.82,298.133 419.014,307.097 399.367,309.401 C402.532,311.867 400.755,319.591 392.939,319.592 C392.199,319.592 391.405,319.522 390.556,319.373 C394.885,323.414 391.519,326.069 377.263,326.447 C382.078,331.262 371.95,335.547 366.095,335.547 C365.396,335.547 364.758,335.486 364.213,335.357 C365.764,337.264 366.545,343.517 355.674,343.517 C354.437,343.517 353.051,343.436 351.496,343.259 C353.07,347.485 349.681,348.91 343.895,348.91 C340.452,348.91 336.161,348.405 331.561,347.687 C332.461,350.768 329.808,353.132 324.705,353.132 C321.029,353.132 316.083,351.906 310.276,348.839 C308.852,352.481 306.257,353.781 303.267,353.781 C298.979,353.781 293.878,351.108 290.251,348.839 C302.572,366.758 329.734,412.406 334.936,419.336 C334.936,419.336 425.134,465.515 426.556,467.378 C437.05,481.202 421.921,485.54 421.921,485.54 L431.455,494.409 C410.695,516.393 385.923,534.553 358.326,547.706" fill="#A27A45"/>
    <path d="M364.66,548.794 C362.666,548.794 360.549,548.453 358.326,547.706 C385.923,534.553 410.695,516.393 431.455,494.409 L435.539,498.208 C420.023,514.645 402.321,528.987 382.895,540.773 L380.899,538.073 C379.339,541.107 377.095,543.823 374.291,545.762 C373.192,546.371 372.101,546.964 370.993,547.557 C369.061,548.347 366.942,548.794 364.66,548.794 M464.297,201.364 C462.712,198.691 461.082,196.059 459.4,193.452 C460.438,193.246 461.278,192.941 461.998,192.635 C463.133,192.149 463.972,191.666 464.825,191.575 C465.553,192.718 466.28,193.879 466.991,195.033 C466.587,196.698 465.646,198.905 464.297,201.364 M457.727,190.894 C439.379,163.225 415.575,139.48 387.859,121.197 C388.784,119.56 389.681,117.923 390.549,116.289 C418.293,134.518 442.228,158.107 460.864,185.558 C459.71,187.54 458.606,189.423 457.727,190.894" fill="#141514"/>
    <path d="M133.499,105.64 C132.233,67.059 124.452,28.661 105.598,4.4 C108.625,3.74 111.564,3.43 114.378,3.43 C128.034,3.43 138.761,10.73 142.597,20.789 C144.694,13.643 150.148,6.407 155.962,4.778 C164.926,10.025 163.243,26.477 163.243,26.477 C166.267,20.06 173.116,11.291 176.643,11.291 C176.895,11.291 177.13,11.335 177.346,11.429 C183.988,14.318 185.383,28.763 184.861,31.076 C184.861,31.076 191.241,22.089 197.594,22.089 C198.264,22.089 198.932,22.188 199.594,22.409 C203.644,23.084 204.022,39.455 204.022,39.455 C208.995,36.272 212.348,34.384 214.754,34.384 C215.845,34.384 216.74,34.772 217.504,35.603 C221.941,40.418 219.439,51.785 217.486,57.365 C222.24,51.98 227.582,50.763 231.436,50.763 C234.609,50.763 236.773,51.587 236.773,51.587 L234.681,75.902 C198.264,78.562 163.979,89.035 133.499,105.64 M240.459,75.547 C243.638,74.732 247.37,73.923 249.659,73.923 C250.63,73.923 251.341,74.068 251.641,74.42 C251.775,74.576 251.871,74.854 251.936,75.233 C248.09,75.251 244.262,75.356 240.459,75.547" fill="#A6A29D"/>
    <path d="M207.442,280.7 L207.442,280.7 C196.66,276.461 174.367,258.272 174.367,258.272 C180.145,220.13 123.148,206.882 126.406,191.24 C131.035,168.94 134.073,140.591 133.649,111.931 C168.663,92.321 208.944,81.044 251.796,80.814 C251.057,88.131 248.905,98.972 248.905,98.972 C248.905,98.972 262.831,92.693 266.387,92.693 C266.939,92.693 267.241,92.844 267.202,93.194 C266.914,95.795 255.214,121.706 255.214,121.706 C258.394,120.383 262.256,119.897 265.722,119.897 C270.603,119.897 274.7,120.861 275.005,121.814 C276.499,126.503 266.338,141.299 266.338,141.299 C266.338,141.299 283.096,141.299 283.96,144.188 C284.833,147.077 274.141,160.802 276.157,161.963 C278.182,163.115 286.561,162.827 285.985,168.893 C285.409,174.959 276.382,185.849 278.056,187.1 C279.73,188.351 290.89,187.001 291.475,189.692 C291.484,189.737 291.49,189.783 291.493,189.83 L291.493,189.946 C291.341,192.856 279.953,200.408 281.071,206.198 C281.449,208.178 283.465,208.475 283.465,208.475 C279.226,215.603 243.658,267.218 207.442,280.7" fill="#A27A45"/>
    <path d="M133.649,111.931 C133.618,109.833 133.568,107.739 133.499,105.64 C163.979,89.035 198.264,78.562 234.681,75.902 L234.568,77.21 C234.568,77.21 237.228,76.375 240.459,75.547 C244.262,75.356 248.09,75.251 251.936,75.233 C252.13,76.363 252.04,78.396 251.796,80.814 C208.944,81.044 168.663,92.321 133.649,111.931" fill="#141514"/>
    <path d="M62.102,260.751 L48.549,266.981 C55.658,266.393 61.229,265.704 61.313,265.694 L61.741,265.639 L62.094,265.676 C62.347,264.098 62.302,262.396 62.102,260.751" fill="#FFFFFE"/>
    <path d="M375.655,138.29 C374.681,140.356 373.612,142.373 372.515,144.379 C371.464,146.413 370.24,148.342 369.109,150.335 C367.935,152.296 366.66,154.202 365.439,156.143 C364.186,158.059 362.819,159.9 361.485,161.769 C360.163,163.646 358.661,165.387 357.254,167.202 C355.863,169.035 354.303,170.725 352.777,172.446 C351.248,174.166 349.71,175.881 348.027,177.459 C346.366,179.054 344.778,180.734 343.048,182.261 L337.787,186.768 C336.045,188.29 334.075,189.524 332.226,190.916 C330.358,192.287 328.49,193.653 326.461,194.785 L320.498,198.375 L314.223,201.399 L311.068,202.881 L307.786,204.067 L302.324,206.033 L299.78,212.732 C298.875,215.338 297.619,217.799 296.513,220.323 C295.401,222.84 294.251,225.347 292.933,227.766 C291.625,230.192 290.465,232.698 289.037,235.053 C287.63,237.422 286.257,239.811 284.814,242.154 L280.209,249.014 C278.637,251.272 276.942,253.443 275.312,255.66 C273.698,257.887 271.862,259.944 270.124,262.072 C268.408,264.223 266.47,266.18 264.643,268.23 C262.829,270.295 260.832,272.186 258.911,274.146 C257.01,276.124 254.917,277.909 252.912,279.776 C250.919,281.663 248.753,283.35 246.685,285.144 C244.597,286.916 242.371,288.517 240.223,290.211 C238.002,291.805 235.809,293.441 233.546,294.972 C231.281,296.499 229.025,298.04 226.7,299.472 C224.395,300.938 222.022,302.269 219.669,303.646 C224.12,300.49 228.505,297.282 232.766,293.917 C234.905,292.243 236.964,290.472 239.052,288.746 C241.073,286.938 243.125,285.17 245.113,283.332 C247.065,281.454 249.116,279.691 250.984,277.731 C252.874,275.796 254.829,273.93 256.622,271.91 C258.44,269.915 260.336,267.992 262.042,265.899 C263.765,263.822 265.594,261.837 267.2,259.667 C268.815,257.511 270.576,255.469 272.109,253.252 C273.655,251.047 275.269,248.89 276.756,246.647 L281.105,239.85 L285.145,232.866 C286.529,230.56 287.637,228.102 288.896,225.726 C290.171,223.357 291.272,220.901 292.344,218.433 C293.417,215.97 294.59,213.547 295.505,211.017 L298.424,203.495 L298.824,202.456 L299.914,202.072 L306.212,199.852 L309.364,198.746 L312.39,197.342 L318.46,194.533 L324.267,191.204 C326.248,190.156 328.08,188.876 329.911,187.591 C331.725,186.283 333.662,185.139 335.376,183.694 L340.639,179.506 C342.373,178.083 343.971,176.503 345.651,175.004 C347.347,173.529 348.911,171.908 350.466,170.28 C352.032,168.669 353.654,167.095 355.103,165.368 C356.567,163.656 358.134,162.02 359.522,160.242 L363.746,154.934 C365.08,153.109 366.467,151.317 367.761,149.459 C369.015,147.572 370.364,145.743 371.542,143.804 C372.773,141.896 373.947,139.956 375.091,137.993 C376.25,136.037 377.359,134.053 378.387,132.018 C377.554,134.139 376.632,136.227 375.655,138.29 M178.117,393.098 C176.398,392.535 174.312,391.846 171.917,391.057 C169.577,390.134 166.996,388.929 164.16,387.646 C162.761,386.969 161.223,386.404 159.772,385.552 C158.322,384.703 156.821,383.824 155.276,382.92 C153.746,381.992 152.12,381.12 150.552,380.078 C149.036,378.959 147.488,377.814 145.911,376.652 C142.673,374.424 139.727,371.618 136.703,368.805 C135.128,367.462 133.838,365.815 132.424,364.277 C131.073,362.682 129.546,361.217 128.331,359.501 C127.109,357.792 125.886,356.084 124.665,354.379 C123.404,352.709 122.492,350.812 121.401,349.059 C120.88,348.164 120.364,347.276 119.846,346.391 C119.343,345.499 118.97,344.541 118.531,343.631 C117.707,341.78 116.819,339.986 116.081,338.163 C115.423,336.31 114.775,334.489 114.142,332.704 C113.475,330.939 113.156,329.096 112.667,327.369 C112.2,325.632 111.778,323.938 111.557,322.256 C111.306,320.581 110.993,318.984 110.822,317.428 C110.553,314.301 110.288,311.455 110.404,308.91 C110.339,306.382 110.626,304.158 110.815,302.355 C110.928,300.538 111.404,299.194 111.549,298.236 C111.747,297.293 111.854,296.789 111.854,296.789 C111.854,296.789 111.833,297.304 111.793,298.269 C111.8,299.23 111.602,300.656 111.727,302.439 C111.789,304.225 111.833,306.359 112.164,308.826 C112.338,311.29 112.934,314.029 113.428,317.01 C113.73,318.493 114.18,320.014 114.566,321.595 C114.78,322.381 114.941,323.193 115.18,324.001 C115.441,324.801 115.705,325.611 115.976,326.434 C116.934,329.761 118.425,333.096 119.823,336.582 C120.594,338.296 121.515,339.975 122.37,341.71 C123.186,343.464 124.222,345.124 125.25,346.807 C126.317,348.463 127.195,350.26 128.425,351.835 C129.607,353.44 130.792,355.055 131.977,356.667 C133.118,358.312 134.558,359.727 135.826,361.264 C137.157,362.749 138.362,364.346 139.856,365.647 C142.75,368.331 145.382,371.224 148.44,373.459 C149.903,374.653 151.346,375.823 152.756,376.97 C154.201,378.077 155.717,379.019 157.14,380.015 C158.578,380.998 159.975,381.954 161.327,382.877 C162.661,383.836 164.1,384.514 165.404,385.303 C168.069,386.781 170.46,388.261 172.647,389.444 C174.89,390.525 176.845,391.468 178.458,392.246 C181.681,393.86 183.52,394.784 183.52,394.784 C183.52,394.784 181.559,394.17 178.117,393.098 M83.677,245.772 C80.164,245.772 77.32,242.925 77.32,239.415 C77.32,235.904 80.164,233.059 83.677,233.059 C87.186,233.059 90.033,235.904 90.033,239.415 C90.033,242.925 87.186,245.772 83.677,245.772 M423.278,144.924 C417.467,147.572 411.624,150.093 407.24,151.973 C402.845,153.829 399.92,155.065 399.92,155.065 C399.92,155.065 402.574,153.318 406.556,150.698 C410.522,148.059 415.798,144.532 420.988,140.909 C423.576,139.093 426.16,137.277 428.518,135.519 C429.686,134.684 430.776,133.851 431.803,133.055 C433.138,130.612 437.186,116.667 438.451,109.528 C437.091,110.378 435.278,111.495 432.958,112.717 C432.083,113.398 431.181,114.089 430.226,114.779 C427.708,116.701 424.938,118.641 422.147,120.537 C419.4,122.484 416.459,124.179 413.822,125.884 C411.079,127.478 408.479,128.885 406.294,130.113 C401.778,132.256 398.765,133.683 398.765,133.683 C398.765,133.683 401.484,131.758 405.568,128.867 C407.499,127.283 409.754,125.493 412.11,123.515 C414.389,121.397 416.911,119.295 419.237,116.945 C421.392,114.853 423.493,112.745 425.436,110.672 L427.906,107.377 C429.484,105.04 432.122,92.626 432.201,87.082 C431.784,87.439 431.239,87.945 430.492,88.657 C429.535,89.569 428.341,90.702 426.835,91.983 C424.202,95.722 420.998,100.165 417.39,104.318 C415.155,106.956 412.738,109.45 410.365,111.657 C409.206,112.779 407.948,113.739 406.837,114.706 C405.676,115.627 404.514,116.422 403.49,117.189 C402.42,117.917 401.377,118.504 400.499,119.056 C399.626,119.634 398.797,119.974 398.136,120.31 C396.802,120.962 396.042,121.333 396.042,121.333 C396.042,121.333 396.73,120.837 397.932,119.97 C398.522,119.527 399.295,119.044 400.037,118.336 C400.796,117.652 401.682,116.935 402.578,116.068 C403.442,115.155 404.413,114.215 405.362,113.15 C406.266,112.034 407.291,110.939 408.209,109.679 C410.093,107.2 411.964,104.467 413.647,101.607 C416.375,97.104 418.68,92.376 420.606,88.319 C421.357,84.646 420.875,78.952 420.052,75.637 C418.53,77.239 416.55,79.513 414.715,81.74 C414.55,82.142 414.378,82.581 414.196,83.011 C412.76,86.687 410.944,92.171 407.997,97.111 C407.324,98.368 406.433,99.526 405.66,100.687 C404.776,101.79 403.933,102.885 403.01,103.846 C402.033,104.761 401.221,105.753 400.226,106.465 C399.251,107.194 398.453,107.978 397.518,108.505 C396.632,109.056 395.818,109.561 395.098,110.008 C394.363,110.387 393.699,110.672 393.161,110.932 C392.085,111.435 391.467,111.725 391.467,111.725 C391.467,111.725 392.009,111.314 392.957,110.593 C393.422,110.227 394.015,109.803 394.651,109.281 C395.232,108.714 395.89,108.08 396.606,107.387 C397.336,106.742 397.951,105.811 398.688,104.973 C399.445,104.146 399.994,103.056 400.684,102.07 C401.323,101.035 401.861,99.891 402.424,98.767 C402.886,97.571 403.442,96.43 403.794,95.178 C405.441,90.288 406.004,85.138 406.662,80.992 C406.696,80.809 406.722,80.648 406.752,80.474 C406.329,74.031 404.575,67.232 403.017,65.987 C402.341,67.074 401.565,70.112 400.979,72.395 C399.959,76.385 398.692,81.349 396.234,86.389 L391.829,95.418 L389.287,85.695 C388.452,82.499 387.039,78.954 385.52,76.292 C377.55,119.886 328.026,187.579 287.704,197.589 C279.637,214.523 256.847,259.688 198.156,294.264 L196.601,295.178 L194.922,294.528 C171.328,285.389 144.199,263.859 131.599,248.328 C130.4,246.853 129.183,245.297 127.933,243.702 C118.489,231.669 107.786,218.03 91.089,218.03 C90.033,218.03 88.946,218.084 87.86,218.192 C68,220.179 62.703,233.691 62.703,241.362 L62.703,245.805 C63.754,247.118 64.406,248.76 64.085,250.232 C63.914,251.021 63.402,252.022 62.016,252.649 C62.749,254.636 64.751,260.718 63.946,265.906 C96.86,270.071 97.906,288.938 99.091,310.738 C99.829,324.367 100.667,339.812 108.732,355.996 C121.909,382.432 160.451,402.009 197.476,415.727 C196.768,414.527 196.383,413.799 196.383,413.799 L213.438,421.34 C212.981,420.771 212.532,420.202 212.089,419.657 C211.025,418.339 210.091,417.035 209.219,415.835 C205.748,411.035 203.905,407.495 203.905,407.495 L240.923,424.543 C240.923,424.543 241.316,425.462 241.799,427.146 C242.032,428.014 242.32,429.077 242.544,430.331 C249.304,432.271 255.441,433.958 260.629,435.38 C268.958,437.663 274.458,439.17 277.095,440.25 L278.262,440.728 L278.9,441.817 L337.555,542.249 C338.875,542.589 340.168,542.761 341.418,542.761 C346.713,542.761 351.552,539.508 354.362,534.059 L354.431,533.924 L331.707,494.596 L370.892,544.362 C372.702,544.675 374.419,544.898 375.836,544.898 C379.028,544.898 381.055,544.418 383.603,535.521 L350.8,491.381 L392.334,532.477 C394.644,533.614 397.887,534.875 400.69,534.875 C402.257,534.874 403.462,534.484 404.362,533.682 C405.078,531.48 403.25,522.955 400.342,514.837 L362.549,481.752 L406.955,509.323 C410.065,509.528 412.401,509.035 413.053,507.986 C413.349,507.508 414.089,505.58 411.633,500.351 L403.864,493.122 L367.88,466.53 L397.565,479.674 L397.664,479.647 C398.882,479.283 402.283,477.769 403.104,475.247 C403.872,472.902 402.262,469.931 400.651,467.719 C395.324,464.277 343.95,437.718 310.005,420.342 L309.24,419.95 L308.723,419.262 C306.225,415.932 299.148,404.487 290.951,391.232 C281.383,375.759 270.539,358.222 263.947,348.641 L253.792,333.882 L268.984,343.374 C274.771,346.991 278.186,347.75 280.036,347.75 C281.558,347.75 282.744,347.313 283.581,345.176 L285.097,341.294 L288.781,343.242 C295.142,346.596 299.46,347.098 301.468,347.098 C303.443,347.098 304.425,346.644 304.745,346.411 L303.139,340.907 L308.902,341.7 C313.977,342.492 317.821,342.876 320.659,342.876 C323.07,342.876 324.282,342.594 324.831,342.398 L324.776,342.243 L322.667,336.565 L328.686,337.249 C330.045,337.404 331.308,337.484 332.437,337.484 C336.279,337.484 337.812,336.57 338.087,336.086 C338.235,335.825 338.1,335.427 338.049,335.342 L331.108,326.848 L341.831,329.427 C341.973,329.459 342.296,329.516 342.858,329.516 C346.099,329.516 350.131,327.888 351.342,326.715 L345.276,320.652 L353.928,320.419 C359.671,320.265 362.715,319.752 364.291,319.324 L355.593,311.212 L367.964,313.395 C370.692,313.877 372.769,313.248 373.582,311.704 C374.014,310.885 373.91,310.149 373.797,309.982 L366.627,304.409 L375.697,303.397 C384.422,302.37 387.135,300.053 387.35,298.972 C387.474,298.348 386.841,297.555 386.541,297.388 L372.665,289.638 L388.449,290.371 C388.843,290.391 389.237,290.401 389.634,290.401 L389.639,290.401 C396.275,290.401 402.997,287.803 406.528,285.854 C405.145,284.949 402.959,283.645 399.524,281.823 L392.477,278.082 L399.871,275.087 C406.405,272.439 412.649,268.459 416.352,265.707 C416.209,265.664 416.07,265.625 415.932,265.585 C413.749,264.944 411.489,264.285 409.828,263.525 L408.276,262.812 C407.986,262.758 407.715,262.706 407.417,262.65 C406.619,262.52 405.796,262.378 404.961,262.311 C404.119,262.198 403.257,262.211 402.38,262.163 C401.508,262.203 400.619,262.18 399.743,262.272 C398.867,262.375 397.984,262.397 397.144,262.557 C395.443,262.794 393.869,263.118 392.514,263.43 C391.148,263.71 390.021,264.082 389.221,264.28 C388.429,264.494 387.978,264.621 387.978,264.621 C387.978,264.621 388.371,264.363 389.062,263.917 C389.762,263.486 390.711,262.797 391.951,262.099 C394.412,260.615 397.812,258.839 401.647,257.598 C402.613,257.338 403.586,257.021 404.576,256.839 C405.56,256.612 406.542,256.471 407.483,256.33 C408.376,256.22 409.242,256.113 410.064,256.013 C410.409,255.953 410.747,255.899 411.075,255.843 C411.335,255.773 411.586,255.704 411.83,255.637 C412.073,255.531 412.621,255.463 413.037,255.382 C418.828,252.452 424.889,246.958 426.618,244.184 C425.115,243.78 422.651,243.074 420.717,240.671 C419.033,241.044 417.141,241.456 415.116,241.905 C412.76,242.37 410.43,243.084 408,243.719 C405.594,244.417 403.123,244.923 400.875,245.756 C398.62,246.548 396.514,247.286 394.713,247.921 C391.103,249.184 388.699,250.028 388.699,250.028 C388.699,250.028 390.854,248.663 394.083,246.618 C395.698,245.595 397.583,244.4 399.604,243.123 C401.596,241.809 403.954,240.719 406.215,239.452 C408.504,238.253 410.82,236.925 412.996,235.949 C415.173,234.914 417.212,233.947 418.953,233.116 C421.156,232.021 424.984,230.087 427.246,228.944 C430.304,226.045 433.167,222.476 434.911,219.935 C433.348,219.804 431.011,219.69 427.522,219.656 L423.379,219.614 C420.276,220.873 416.932,222.172 413.578,223.459 C407.523,225.804 401.472,228.15 396.933,229.91 C392.426,231.753 389.421,232.981 389.421,232.981 C389.421,232.981 392.165,231.236 396.279,228.619 C400.441,226.081 405.989,222.694 411.54,219.308 C417.088,215.95 422.609,212.555 426.46,209.873 C428.346,208.533 429.895,207.369 430.66,206.596 C431.134,206.191 432.177,205.191 432.293,205.038 C432.348,204.977 432.78,204.618 433.275,204.206 C436.121,200.394 438.281,196.665 439.396,194.082 C437.796,194.68 435.646,195.223 432.599,195.091 L429.542,194.959 C428.604,195.439 427.638,195.923 426.635,196.394 C423.927,197.729 421.025,199.062 418.121,200.394 C412.313,203.039 406.466,205.561 402.083,207.441 C397.692,209.298 394.763,210.533 394.763,210.533 C394.763,210.533 397.42,208.786 401.4,206.168 C405.368,203.53 410.642,200.001 415.831,196.376 C418.422,194.559 421.006,192.747 423.366,190.984 C425.766,189.267 427.864,187.557 429.696,186.137 C430.542,185.402 431.32,184.73 432.007,184.134 C432.348,183.838 432.665,183.56 432.958,183.303 C433.239,183.049 433.387,182.828 433.581,182.625 C433.691,182.504 433.781,182.407 433.876,182.3 C436.241,178.249 439.123,173.243 441.269,169.491 C441.39,169.163 441.479,168.693 441.467,168.431 C441.253,168.332 440.655,168.122 439.366,168.122 C438.418,168.122 437.284,168.235 435.999,168.458 L435.445,168.556 L435.292,168.643 C433.12,169.77 430.608,171.144 427.889,172.42 C425.182,173.758 422.278,175.088 419.375,176.419 C413.567,179.064 407.719,181.588 403.336,183.465 C398.947,185.32 396.022,186.557 396.022,186.557 C396.022,186.557 398.673,184.81 402.658,182.193 C406.622,179.554 411.899,176.026 417.085,172.401 C419.676,170.583 422.26,168.771 424.619,167.011 C427.024,165.292 429.118,163.581 430.949,162.162 C431.795,161.429 432.575,160.755 433.261,160.158 C433.602,159.865 433.922,159.584 434.216,159.33 L434.243,159.302 C436.484,154.412 439.475,145.382 441.852,137.355 L435.886,138.881 C434.588,139.558 433.219,140.254 431.79,140.926 C429.085,142.264 426.178,143.596 423.278,144.924" fill="#FFFFFE"/>
    <path d="M60.211,253.139 C59.742,253.207 59.232,253.253 58.647,253.253 C57.699,253.253 56.554,253.132 55.254,252.91 L54.603,253.752 C50.759,258.714 47.54,263.116 45.128,266.507 L61.804,258.839 C61.302,256.226 60.543,254.03 60.211,253.139" fill="#FFFFFE"/>
    <path d="M62.268,249.837 C62.606,248.275 60.75,245.729 58.956,245.299 L58.967,245.251 L57.884,244.916 C56.408,244.467 55.485,245.507 55.123,246.134 C54.462,247.272 54.367,248.708 54.892,249.628 L55.74,251.11 C59.523,251.734 61.953,251.28 62.268,249.837" fill="#FFFFFE"/>
    <path d="M223.661,432.116 C220.685,429.435 217.917,426.588 215.495,423.774 C214.765,422.97 214.092,422.152 213.44,421.34 L196.383,413.799 C196.383,413.799 199.472,416.454 203.822,420.589 C205.986,422.652 208.51,425.056 211.218,427.631 C213.932,430.166 216.763,432.924 219.74,435.448 C221.201,436.742 222.684,437.99 224.191,439.109 C225.715,440.193 227.19,441.274 228.673,441.982 C229.407,442.348 230.13,442.589 230.769,442.754 L231.231,442.842 C231.016,442.886 231.216,442.879 231.374,442.869 C231.571,442.595 231.738,441.931 231.834,441.314 C231.943,440.618 231.987,439.881 231.999,439.167 C232.001,438.82 231.987,438.494 231.984,438.159 C230.726,437.478 229.508,436.734 228.36,435.887 C226.742,434.701 225.144,433.464 223.661,432.116" fill="#FFFFFE"/>
    <path d="M231.471,442.86 L231.467,442.862 L231.471,442.86" fill="#FFFFFE"/>
    <path d="M231.321,442.949 L231.34,442.92 C231.17,443.01 231.282,443.044 231.321,442.949" fill="#FFFFFE"/>
    <path d="M218.403,420.997 C221.041,423.493 223.828,426.165 226.707,428.668 C229.541,431.206 232.533,433.581 235.391,435.262 C236.109,435.651 236.817,435.991 237.489,436.214 C237.816,436.291 238.158,436.455 238.442,436.477 L238.663,436.52 L238.774,436.542 L238.83,436.554 L238.857,436.56 C238.782,436.566 239.049,436.554 238.689,436.571 L238.709,436.571 C238.93,436.577 239.212,436.542 238.998,436.577 C238.865,436.734 239.31,436.497 239.528,435.949 C239.771,435.427 239.993,434.775 240.135,434.122 C240.676,431.457 240.729,428.96 240.827,427.26 C240.889,425.532 240.923,424.543 240.923,424.543 L203.907,407.495 C203.907,407.495 206.927,410.087 211.176,414.125 C213.291,416.14 215.758,418.482 218.403,420.997" fill="#FFFFFE"/>
    <path d="M81.508,242.929 C79.568,242.929 77.995,241.354 77.995,239.413 C77.995,237.473 79.568,235.901 81.508,235.901 C83.451,235.901 85.023,237.473 85.023,239.413 C85.023,241.354 83.451,242.929 81.508,242.929 M83.677,233.057 C80.164,233.057 77.32,235.905 77.32,239.413 C77.32,242.925 80.164,245.77 83.677,245.77 C87.186,245.77 90.033,242.925 90.033,239.413 C90.033,235.905 87.186,233.057 83.677,233.057" fill="#FFFFFE"/>
    <path d="M177.074,241.971 C177.069,243.532 176.714,245.069 176.256,246.522 C176.521,245.009 176.671,243.495 176.482,241.988 C176.358,240.485 176.055,239.003 175.686,237.545 C175.268,236.096 174.777,234.674 174.208,233.278 C173.629,231.886 172.985,230.524 172.303,229.181 C170.899,226.509 169.352,223.916 167.685,221.399 C166.026,218.88 164.214,216.459 162.366,214.073 C160.499,211.703 158.542,209.403 156.501,207.189 C154.455,204.982 152.365,202.815 150.165,200.783 C147.968,198.748 145.684,196.821 143.298,195.115 C140.921,193.424 138.397,191.874 135.938,191.103 L134.234,190.567 L135.115,176.389 C135.401,172.31 135.56,168.136 135.786,164.015 C135.999,159.882 136.197,155.745 136.469,151.615 C136.747,147.48 136.925,143.355 137.105,139.226 L137.773,126.841 L138.526,114.442 C138.635,110.294 138.864,106.146 139.031,101.998 C139.195,97.852 139.386,93.703 139.66,89.556 C139.969,93.694 140.198,97.836 140.401,101.98 C140.601,106.12 140.872,110.262 141.017,114.404 C141.124,122.701 141.052,131.013 141.012,139.33 C140.942,147.657 140.632,155.938 140.281,164.235 L140.027,170.452 C139.932,172.532 139.885,174.587 139.729,176.694 L138.937,187.472 C141.544,188.572 143.792,190.014 145.878,191.604 C148.418,193.537 150.755,195.641 152.99,197.833 C157.464,202.211 161.391,207.06 165.001,212.115 C166.8,214.646 168.436,217.294 169.98,219.991 C170.754,221.338 171.476,222.716 172.177,224.104 C172.873,225.496 173.479,226.931 174.08,228.366 C174.646,229.819 175.173,231.283 175.635,232.774 C176.08,234.267 176.444,235.784 176.729,237.316 C176.95,238.858 177.163,240.412 177.074,241.971 M244.207,177.064 C239.486,179.046 234.971,181.18 232.238,183.733 C230.857,184.976 229.956,186.278 229.451,187.264 C229.167,187.744 229.03,188.163 228.913,188.438 C228.798,188.719 228.739,188.868 228.739,188.868 C228.739,188.868 228.763,188.71 228.814,188.412 C228.867,188.117 228.905,187.662 229.081,187.119 C229.363,186.012 229.988,184.44 231.147,182.787 C233.417,179.419 237.725,176.051 241.923,173.044 C244.02,171.523 246.079,170.034 247.818,168.581 C249.556,167.131 250.932,165.693 251.715,164.494 C252.081,163.894 252.364,163.368 252.48,162.93 C252.565,162.714 252.615,162.518 252.629,162.344 C252.675,162.156 252.696,162.011 252.657,161.979 C252.641,161.891 252.645,161.931 252.653,161.772 C252.659,161.555 254.472,156.421 254.472,156.421 L254.519,156.456 C255.374,154.432 256.667,152.199 258.278,149.457 C258.416,149.22 258.564,148.967 258.722,148.698 C256.415,148.513 253.766,148.399 251.313,148.399 L246.624,148.399 C246.393,148.641 246.175,148.889 245.928,149.125 C242.305,152.451 237.304,154.402 232.623,156.378 C227.913,158.312 223.414,160.405 220.691,162.935 C219.316,164.169 218.417,165.464 217.919,166.443 C217.634,166.921 217.5,167.338 217.381,167.612 C217.268,167.891 217.207,168.04 217.207,168.04 C217.207,168.04 217.232,167.882 217.283,167.584 C217.337,167.29 217.374,166.839 217.549,166.298 C217.824,165.194 218.442,163.629 219.598,161.991 C221.864,158.637 226.172,155.306 230.362,152.344 C232.459,150.842 234.515,149.376 236.25,147.941 C237.732,146.721 238.71,145.787 239.822,144.542 L245.179,136.743 C247.36,133.556 249.499,129.895 250.932,126.995 L250.688,126.995 C247.72,126.995 244.936,127.444 243.042,128.229 L241.217,128.987 C240.727,129.526 240.208,130.055 239.632,130.528 C235.525,134.039 229.942,136.368 224.653,138.96 C219.339,141.483 214.306,144.37 211.152,147.404 C209.568,148.893 208.397,150.322 207.698,151.403 C207.313,151.923 207.096,152.385 206.906,152.68 C206.729,152.978 206.635,153.14 206.635,153.14 C206.635,153.14 206.693,152.964 206.81,152.634 C206.94,152.313 207.067,151.806 207.347,151.213 C207.837,149.99 208.731,148.312 210.062,146.452 C212.701,142.676 217.411,138.591 222.236,135.017 C224.104,133.623 225.981,132.243 227.709,130.907 L233.405,118.291 C235.491,113.684 237.704,108.679 239.633,104.23 C238.732,104.617 237.828,105.013 236.94,105.413 L233.436,106.993 L233.405,107.03 C233.063,107.474 232.703,107.939 232.325,108.426 C231.525,109.276 230.649,110.189 229.687,110.986 C228.724,111.779 227.713,112.597 226.646,113.306 C224.519,114.803 222.244,116.142 220.018,117.493 C217.774,118.827 215.63,120.178 213.66,121.532 C212.728,122.246 211.767,122.907 210.967,123.622 C210.165,124.343 209.364,125.007 208.768,125.733 C208.448,126.086 208.143,126.424 207.854,126.746 C207.587,127.086 207.378,127.432 207.156,127.751 C206.719,128.391 206.315,128.953 206.126,129.481 C205.657,130.518 205.396,131.11 205.396,131.11 C205.396,131.11 205.525,130.468 205.751,129.346 C205.828,128.757 206.101,128.114 206.402,127.355 C206.555,126.978 206.698,126.56 206.893,126.143 C207.118,125.744 207.351,125.325 207.598,124.886 C208.06,123.968 208.724,123.11 209.396,122.16 C210.072,121.213 210.894,120.323 211.712,119.352 C213.405,117.509 215.311,115.62 217.203,113.826 C219.087,112.01 220.966,110.238 222.502,108.53 C223.309,107.689 223.961,106.846 224.573,106.062 C224.704,105.89 224.803,105.725 224.92,105.556 L226.58,97.18 C227.578,92.155 228.556,86.313 229.116,81.962 C226.59,82.555 223.811,83.323 221.768,83.963 L220.258,84.435 C219.929,84.936 219.581,85.438 219.213,85.993 C218.42,86.94 217.616,88.066 216.665,89.034 C215.738,90.046 214.752,91.075 213.699,92.062 C211.617,94.082 209.346,96.054 207.104,98.022 C204.857,99.982 202.646,101.93 200.649,103.829 C199.654,104.78 198.73,105.725 197.851,106.634 C197.044,107.578 196.179,108.43 195.55,109.315 C194.901,110.189 194.235,110.97 193.82,111.752 C193.388,112.525 192.889,113.163 192.687,113.772 C192.18,114.968 191.891,115.651 191.891,115.651 C191.891,115.651 192.043,114.92 192.312,113.635 C192.403,112.967 192.767,112.255 193.055,111.371 C193.33,110.474 193.839,109.573 194.33,108.537 C194.809,107.486 195.5,106.479 196.15,105.329 C196.857,104.239 197.613,103.082 198.428,101.922 C200.071,99.608 201.91,97.211 203.737,94.855 C205.556,92.493 207.373,90.156 208.906,87.943 C209.701,86.841 210.381,85.764 211.003,84.748 C211.184,84.476 211.308,84.22 211.458,83.956 L213.676,58.225 C211.606,58.801 209.72,60.043 208.042,61.945 L196.19,75.38 L196.118,75.532 C195.14,77.494 193.879,79.622 192.417,81.712 C190.982,83.833 189.362,85.937 187.768,88.029 C184.557,92.183 181.457,96.301 179.558,99.684 C179.059,100.517 178.644,101.304 178.313,102.019 C177.961,102.728 177.652,103.351 177.463,103.888 C177.042,104.952 176.805,105.56 176.805,105.56 C176.805,105.56 176.907,104.912 177.083,103.776 C177.152,103.197 177.317,102.518 177.506,101.734 C177.681,100.938 177.919,100.056 178.233,99.111 C179.38,95.276 181.595,90.382 183.812,85.639 C184.902,83.261 185.994,80.904 186.855,78.709 C187.755,76.518 188.402,74.487 188.813,72.795 C188.965,71.976 189.216,71.128 189.212,70.606 C189.241,70.327 189.271,70.065 189.296,69.823 C189.311,69.705 189.325,69.591 189.339,69.484 C189.343,69.326 189.351,69.176 189.351,69.033 C189.379,67.884 195.627,53.966 195.627,53.966 L195.627,53.968 C197.113,49.474 197.629,45.25 197.499,42.647 C196.332,43.3 194.836,44.21 193.014,45.378 L189.323,47.736 C189.278,47.885 189.23,48.032 189.181,48.185 C188.809,49.243 188.351,50.26 187.866,51.443 C186.813,53.7 185.542,56.251 184.057,58.838 C182.598,61.448 180.966,64.139 179.345,66.816 C176.093,72.158 172.84,77.443 170.74,81.589 C170.229,82.627 169.715,83.572 169.355,84.441 C168.984,85.306 168.606,86.051 168.39,86.691 C167.917,87.97 167.65,88.703 167.65,88.703 C167.65,88.703 167.78,87.931 168.008,86.581 C168.104,85.897 168.341,85.099 168.548,84.16 C168.748,83.219 169.081,82.193 169.398,81.053 C170.721,76.509 172.985,70.624 175.188,64.79 C176.286,61.874 177.378,58.966 178.292,56.249 C179.242,53.533 179.951,51.01 180.498,48.883 C180.705,47.843 180.95,46.83 181.065,46.062 C181.11,45.649 181.394,43.825 181.631,42.299 L181.56,39.283 C181.482,36.164 181.117,32.668 180.658,30.196 C179.127,31.326 177.201,33.238 175.886,35.059 L163.544,52.184 C163.041,53.376 162.523,54.606 161.985,55.883 C160.659,59.022 159.132,62.283 157.656,65.57 C154.667,72.104 151.591,78.583 149.541,83.535 C148.44,85.993 147.69,88.084 147.168,89.563 C146.63,91.043 146.325,91.886 146.325,91.886 C146.325,91.886 146.489,91.004 146.783,89.463 C147.063,87.915 147.477,85.687 148.169,83.083 C149.415,77.809 151.415,70.903 153.314,63.985 C154.237,60.527 155.212,57.08 156.001,53.851 C156.392,52.241 156.766,50.684 157.123,49.206 C157.333,48.423 159.402,41.251 161.341,34.546 L162.498,29.434 C162.583,27.337 161.818,23.27 160.775,20.505 C158.819,22.756 156.441,26.135 154.949,29.302 L136.382,68.763 L140.812,25.379 C141.086,22.515 140.841,17.48 139.507,14.056 C137.599,16.09 135.713,19.152 134.714,22.541 L128.489,43.748 L120.621,23.095 C118.186,16.705 111.938,12.208 104.092,10.908 C134.208,63.149 127.34,150.423 118.712,192.169 C119.581,194.709 127.305,200.24 132.45,203.926 C146.921,214.287 168.386,229.662 167.142,254.639 C173.785,259.87 185.32,268.507 192.61,272.256 C220.598,260.152 249.348,223.05 259.146,208.764 C258.978,208.29 258.842,207.792 258.741,207.267 C257.795,202.381 260.032,198.081 262.871,194.456 C261.274,194.173 259.85,193.669 258.567,192.705 C252.469,188.133 256.47,181.278 259.394,176.271 C260.321,174.685 261.967,171.864 262.889,169.798 C262.588,169.728 262.305,169.668 262.079,169.618 C260.916,169.365 259.723,169.104 258.557,168.618 C258.23,168.983 257.891,169.346 257.527,169.698 C253.907,173.038 248.904,175.039 244.207,177.064" fill="#FFFFFE"/>
    <path d="M178.457,392.246 C181.679,393.86 183.521,394.784 183.521,394.784 C183.521,394.784 181.557,394.17 178.117,393.098 C176.398,392.535 174.312,391.846 171.917,391.057 C169.577,390.134 166.996,388.929 164.158,387.646 C162.759,386.967 161.222,386.404 159.773,385.552 C158.322,384.703 156.821,383.824 155.278,382.92 C153.746,381.992 152.121,381.121 150.553,380.078 C149.036,378.959 147.488,377.814 145.913,376.652 C142.673,374.424 139.729,371.618 136.705,368.805 C135.128,367.462 133.838,365.815 132.424,364.277 C131.073,362.682 129.546,361.217 128.332,359.501 C127.107,357.792 125.884,356.084 124.667,354.379 C123.402,352.709 122.492,350.812 121.401,349.059 C120.882,348.164 120.362,347.276 119.846,346.391 C119.341,345.499 118.97,344.541 118.533,343.631 C117.709,341.78 116.817,339.984 116.081,338.163 C115.423,336.31 114.773,334.489 114.144,332.704 C113.475,330.939 113.156,329.096 112.668,327.369 C112.2,325.632 111.776,323.938 111.559,322.256 C111.306,320.581 110.991,318.984 110.822,317.428 C110.555,314.301 110.288,311.455 110.404,308.91 C110.339,306.38 110.626,304.158 110.815,302.355 C110.926,300.538 111.404,299.194 111.547,298.236 C111.745,297.293 111.854,296.789 111.854,296.789 C111.854,296.789 111.833,297.304 111.794,298.269 C111.8,299.23 111.6,300.656 111.727,302.439 C111.789,304.225 111.833,306.359 112.164,308.826 C112.338,311.29 112.932,314.029 113.43,317.01 C113.731,318.493 114.178,320.014 114.566,321.595 C114.78,322.381 114.939,323.193 115.18,324.001 C115.441,324.801 115.703,325.611 115.976,326.434 C116.936,329.761 118.425,333.096 119.821,336.582 C120.594,338.296 121.515,339.975 122.369,341.71 C123.188,343.464 124.222,345.124 125.25,346.805 C126.318,348.463 127.191,350.26 128.423,351.835 C129.605,353.44 130.792,355.055 131.977,356.667 C133.12,358.312 134.558,359.727 135.826,361.264 C137.159,362.749 138.36,364.346 139.858,365.645 C142.752,368.331 145.384,371.224 148.438,373.459 C149.901,374.653 151.348,375.823 152.754,376.97 C154.201,378.077 155.716,379.019 157.142,380.015 C158.576,380.998 159.975,381.954 161.327,382.877 C162.661,383.836 164.1,384.514 165.404,385.303 C168.067,386.778 170.458,388.261 172.647,389.444 C174.89,390.525 176.847,391.468 178.457,392.246 M135.938,191.102 L134.234,190.566 L135.115,176.389 C135.397,172.308 135.56,168.138 135.786,164.015 C136,159.882 136.197,155.745 136.469,151.617 C136.747,147.48 136.927,143.355 137.101,139.227 L137.773,126.841 L138.526,114.442 C138.635,110.295 138.864,106.146 139.031,102 C139.195,97.852 139.386,93.705 139.66,89.556 C139.969,93.696 140.198,97.835 140.401,101.979 C140.601,106.122 140.872,110.262 141.017,114.406 C141.124,122.702 141.052,131.013 141.012,139.33 C140.942,147.658 140.632,155.936 140.281,164.234 L140.027,170.454 C139.932,172.531 139.885,174.587 139.729,176.694 L138.937,187.472 C141.544,188.572 143.792,190.014 145.88,191.602 C148.415,193.536 150.755,195.64 152.986,197.834 C157.464,202.211 161.391,207.062 165.001,212.113 C166.8,214.648 168.436,217.296 169.98,219.992 C170.754,221.337 171.476,222.718 172.177,224.106 C172.873,225.495 173.481,226.93 174.076,228.367 C174.646,229.819 175.173,231.283 175.631,232.773 C176.082,234.269 176.444,235.784 176.729,237.315 C176.95,238.858 177.165,240.411 177.074,241.971 C177.069,243.532 176.714,245.069 176.252,246.524 C176.521,245.009 176.671,243.496 176.482,241.988 C176.358,240.484 176.055,239.005 175.686,237.544 C175.268,236.096 174.777,234.673 174.208,233.278 C173.629,231.886 172.985,230.524 172.303,229.18 C170.899,226.511 169.348,223.916 167.685,221.401 C166.022,218.88 164.216,216.458 162.366,214.073 C160.499,211.705 158.542,209.403 156.503,207.188 C154.455,204.981 152.365,202.813 150.165,200.784 C147.968,198.75 145.684,196.823 143.298,195.117 C140.921,193.423 138.399,191.872 135.938,191.102 M104.093,10.91 C111.938,12.207 118.182,16.704 120.621,23.095 L128.489,43.746 L134.715,22.542 C135.71,19.152 137.599,16.09 139.503,14.055 C140.841,17.478 141.086,22.513 140.812,25.377 L136.382,68.762 L154.951,29.302 C156.441,26.135 158.819,22.757 160.775,20.504 C161.818,23.27 162.583,27.339 162.498,29.436 L161.341,34.548 C159.402,41.251 157.333,48.425 157.125,49.208 C156.766,50.685 156.392,52.241 156.003,53.852 C155.212,57.08 154.237,60.529 153.314,63.984 C151.415,70.903 149.415,77.811 148.171,83.084 C147.477,85.687 147.063,87.914 146.783,89.462 C146.489,91.003 146.321,91.886 146.321,91.886 C146.321,91.886 146.63,91.042 147.168,89.563 C147.69,88.084 148.44,85.993 149.541,83.534 C151.591,78.585 154.667,72.104 157.656,65.571 C159.132,62.281 160.659,59.021 161.985,55.882 C162.523,54.606 163.041,53.375 163.544,52.184 L175.888,35.059 C177.201,33.24 179.127,31.326 180.658,30.195 C181.119,32.668 181.482,36.164 181.56,39.284 L181.631,42.301 C181.394,43.825 181.11,45.648 181.061,46.062 C180.95,46.83 180.705,47.843 180.498,48.882 C179.951,51.009 179.242,53.532 178.292,56.25 C177.378,58.968 176.286,61.874 175.188,64.791 C172.985,70.622 170.721,76.509 169.398,81.052 C169.081,82.193 168.748,83.218 168.548,84.161 C168.341,85.101 168.104,85.895 168.008,86.582 C167.78,87.931 167.647,88.703 167.647,88.703 C167.647,88.703 167.917,87.972 168.39,86.691 C168.606,86.05 168.986,85.306 169.355,84.441 C169.715,83.572 170.229,82.628 170.74,81.588 C172.836,77.442 176.093,72.16 179.345,66.816 C180.966,64.138 182.598,61.45 184.057,58.837 C185.542,56.252 186.815,53.702 187.868,51.444 C188.351,50.259 188.806,49.243 189.183,48.184 C189.23,48.033 189.278,47.887 189.323,47.738 L193.014,45.376 C194.836,44.21 196.332,43.3 197.495,42.647 C197.629,45.252 197.113,49.474 195.627,53.968 L195.627,53.966 C195.627,53.966 189.379,67.886 189.351,69.032 C189.351,69.176 189.343,69.326 189.339,69.484 C189.325,69.593 189.311,69.705 189.296,69.825 C189.271,70.066 189.241,70.327 189.212,70.608 C189.216,71.127 188.965,71.976 188.813,72.794 C188.402,74.488 187.755,76.517 186.857,78.709 C185.994,80.905 184.902,83.261 183.812,85.641 C181.595,90.384 179.38,95.275 178.233,99.111 C177.919,100.058 177.681,100.937 177.506,101.734 C177.317,102.517 177.152,103.197 177.083,103.777 C176.907,104.912 176.805,105.561 176.805,105.561 C176.805,105.561 177.042,104.953 177.463,103.887 C177.652,103.351 177.961,102.727 178.313,102.018 C178.644,101.306 179.061,100.519 179.558,99.685 C181.457,96.301 184.557,92.182 187.768,88.028 C189.362,85.936 190.979,83.832 192.417,81.71 C193.879,79.621 195.14,77.496 196.118,75.532 L196.19,75.379 L208.042,61.944 C209.72,60.042 211.606,58.799 213.676,58.224 L211.458,83.954 C211.308,84.219 211.181,84.478 211.003,84.748 C210.383,85.764 209.701,86.841 208.906,87.942 C207.373,90.155 205.556,92.491 203.737,94.855 C201.91,97.211 200.071,99.609 198.428,101.924 C197.613,103.083 196.859,104.239 196.15,105.331 C195.501,106.479 194.809,107.485 194.33,108.536 C193.839,109.571 193.332,110.473 193.057,111.372 C192.767,112.254 192.403,112.967 192.312,113.637 C192.043,114.919 191.891,115.653 191.891,115.653 C191.891,115.653 192.18,114.967 192.687,113.77 C192.889,113.165 193.388,112.524 193.82,111.752 C194.235,110.969 194.901,110.189 195.55,109.314 C196.179,108.431 197.044,107.58 197.851,106.633 C198.73,105.727 199.654,104.78 200.649,103.829 C202.646,101.931 204.857,99.983 207.104,98.022 C209.346,96.053 211.617,94.08 213.696,92.062 C214.752,91.076 215.738,90.045 216.665,89.033 C217.616,88.065 218.42,86.94 219.213,85.993 C219.581,85.437 219.929,84.937 220.258,84.435 L221.764,83.962 C223.811,83.325 226.59,82.554 229.116,81.962 C228.556,86.312 227.578,92.157 226.58,97.179 L224.923,105.557 C224.804,105.727 224.704,105.889 224.573,106.062 C223.961,106.846 223.309,107.688 222.502,108.529 C220.968,110.238 219.087,112.011 217.205,113.826 C215.313,115.618 213.408,117.511 211.712,119.351 C210.894,120.323 210.074,121.212 209.396,122.161 C208.724,123.11 208.061,123.967 207.598,124.885 C207.351,125.324 207.115,125.743 206.893,126.143 C206.698,126.559 206.555,126.978 206.402,127.356 C206.101,128.114 205.828,128.757 205.751,129.345 C205.525,130.467 205.396,131.11 205.396,131.11 C205.396,131.11 205.659,130.517 206.126,129.481 C206.315,128.952 206.719,128.391 207.156,127.752 C207.378,127.434 207.587,127.086 207.854,126.746 C208.143,126.426 208.45,126.085 208.768,125.734 C209.361,125.006 210.165,124.342 210.967,123.623 C211.767,122.905 212.728,122.246 213.66,121.534 C215.63,120.178 217.774,118.828 220.018,117.492 C222.244,116.142 224.519,114.804 226.642,113.306 C227.713,112.597 228.724,111.78 229.689,110.987 C230.649,110.189 231.525,109.275 232.325,108.427 C232.699,107.939 233.063,107.474 233.405,107.031 L233.433,106.993 L236.94,105.415 C237.828,105.012 238.732,104.616 239.633,104.229 C237.704,108.681 235.487,113.683 233.405,118.293 L227.709,130.906 C225.981,132.244 224.104,133.622 222.236,135.016 C217.411,138.593 212.697,142.676 210.062,146.45 C208.731,148.311 207.837,149.992 207.347,151.212 C207.067,151.806 206.94,152.314 206.81,152.636 C206.693,152.963 206.635,153.14 206.635,153.14 C206.635,153.14 206.726,152.978 206.906,152.679 C207.096,152.384 207.313,151.925 207.698,151.402 C208.397,150.321 209.568,148.891 211.152,147.404 C214.306,144.37 219.339,141.482 224.653,138.96 C229.942,136.367 235.525,134.037 239.632,130.529 C240.208,130.054 240.727,129.528 241.217,128.988 L243.042,128.228 C244.936,127.444 247.72,126.995 250.684,126.995 L250.932,126.995 C249.5,129.894 247.36,133.558 245.179,136.743 L239.822,144.541 C238.71,145.786 237.732,146.72 236.25,147.941 C234.515,149.378 232.456,150.844 230.362,152.344 C226.172,155.306 221.864,158.637 219.598,161.99 C218.442,163.63 217.824,165.196 217.549,166.297 C217.374,166.839 217.337,167.291 217.283,167.584 C217.232,167.88 217.209,168.038 217.209,168.038 C217.209,168.038 217.268,167.889 217.381,167.611 C217.5,167.337 217.635,166.92 217.919,166.442 C218.417,165.464 219.316,164.168 220.694,162.937 C223.414,160.404 227.913,158.31 232.619,156.377 C237.304,154.403 242.305,152.45 245.928,149.124 C246.175,148.889 246.393,148.641 246.624,148.399 L251.313,148.399 C253.766,148.399 256.413,148.514 258.722,148.696 C258.564,148.966 258.416,149.222 258.278,149.457 C256.667,152.199 255.374,154.431 254.519,156.455 L254.472,156.423 C254.472,156.423 252.659,161.556 252.653,161.774 C252.645,161.932 252.641,161.891 252.657,161.979 C252.696,162.012 252.675,162.157 252.629,162.343 C252.615,162.518 252.565,162.715 252.483,162.931 C252.364,163.368 252.081,163.893 251.715,164.496 C250.934,165.693 249.556,167.133 247.814,168.58 C246.079,170.034 244.017,171.522 241.919,173.044 C237.725,176.051 233.417,179.419 231.144,182.789 C229.984,184.439 229.359,186.012 229.081,187.118 C228.905,187.663 228.867,188.116 228.811,188.412 C228.763,188.71 228.739,188.868 228.739,188.868 C228.739,188.868 228.8,188.719 228.913,188.439 C229.033,188.162 229.167,187.746 229.451,187.264 C229.956,186.28 230.857,184.975 232.238,183.732 C234.971,181.179 239.486,179.045 244.207,177.063 C248.9,175.041 253.907,173.036 257.527,169.697 C257.891,169.345 258.23,168.984 258.557,168.618 C259.723,169.104 260.916,169.365 262.079,169.618 C262.305,169.666 262.588,169.728 262.889,169.798 C261.967,171.865 260.321,174.685 259.394,176.273 C256.47,181.278 252.469,188.135 258.567,192.707 C259.85,193.668 261.274,194.172 262.871,194.456 C260.032,198.08 257.795,202.38 258.739,207.266 C258.842,207.792 258.978,208.292 259.146,208.766 C249.348,223.049 220.594,260.152 192.607,272.258 C185.32,268.507 173.785,259.868 167.142,254.639 C168.386,229.662 146.921,214.287 132.45,203.924 C127.305,200.241 119.578,194.708 118.712,192.17 C127.336,150.423 134.208,63.148 104.093,10.91 M111.375,190.892 C108.125,206.538 165.118,219.785 159.339,257.925 C159.339,257.925 181.635,276.113 192.421,280.352 C228.635,266.869 264.199,215.256 268.436,208.13 C268.436,208.13 266.43,207.832 266.049,205.856 C264.893,199.885 277.028,192.048 276.451,189.352 C275.872,186.655 264.701,188.002 263.032,186.752 C261.363,185.5 270.383,174.617 270.959,168.548 C271.507,162.812 264.055,162.756 261.53,161.79 L260.975,161.368 C260.043,159.269 269.768,146.608 268.938,143.846 C268.071,140.957 251.313,140.957 251.313,140.957 C251.313,140.957 261.477,126.158 259.98,121.471 C259.678,120.518 255.573,119.553 250.684,119.553 C247.223,119.553 243.365,120.037 240.189,121.356 C240.189,121.356 251.892,95.449 252.181,92.849 C252.218,92.5 251.917,92.348 251.368,92.348 C247.81,92.348 233.882,98.627 233.882,98.627 C233.882,98.627 238.351,76.098 236.619,74.074 C236.319,73.722 235.607,73.578 234.633,73.578 C230.015,73.578 219.54,76.862 219.54,76.862 L221.749,51.241 C221.749,51.241 219.584,50.417 216.407,50.417 C212.555,50.417 207.214,51.634 202.459,57.02 C204.407,51.435 206.915,40.07 202.484,35.256 C201.719,34.425 200.824,34.038 199.733,34.038 C197.328,34.038 193.973,35.926 189.001,39.107 C189.001,39.107 188.615,22.736 184.57,22.061 C183.91,21.842 183.242,21.741 182.572,21.741 C176.22,21.741 169.835,30.729 169.835,30.729 C170.358,28.417 168.966,13.97 162.323,11.079 C162.106,10.989 161.872,10.943 161.618,10.943 C158.089,10.943 151.236,19.717 148.217,26.133 C148.217,26.133 149.897,9.677 140.941,4.435 C135.126,6.062 129.673,13.297 127.572,20.445 C123.738,10.378 113.004,3.084 99.342,3.084 C96.533,3.084 93.596,3.393 90.573,4.05 C124.472,47.667 122.575,136.959 111.375,190.892 M375.091,137.992 C376.25,136.038 377.359,134.051 378.387,132.017 C377.555,134.139 376.632,136.227 375.653,138.292 C374.681,140.357 373.612,142.373 372.515,144.38 C371.464,146.413 370.24,148.343 369.109,150.334 C367.935,152.297 366.66,154.201 365.439,156.141 C364.186,158.06 362.819,159.9 361.485,161.769 C360.163,163.648 358.661,165.386 357.254,167.203 C355.863,169.036 354.303,170.724 352.777,172.447 C351.248,174.166 349.71,175.883 348.027,177.457 C346.366,179.054 344.778,180.733 343.048,182.26 L337.787,186.766 C336.045,188.291 334.075,189.524 332.226,190.916 C330.358,192.286 328.49,193.653 326.461,194.786 L320.498,198.376 L314.223,201.4 L311.068,202.881 L307.786,204.067 L302.324,206.033 L299.78,212.731 C298.875,215.338 297.622,217.8 296.513,220.323 C295.401,222.841 294.251,225.347 292.933,227.766 C291.625,230.191 290.465,232.699 289.037,235.055 C287.63,237.423 286.257,239.811 284.814,242.155 L280.209,249.014 C278.637,251.27 276.942,253.441 275.312,255.66 C273.698,257.887 271.862,259.943 270.124,262.072 C268.408,264.221 266.47,266.181 264.643,268.231 C262.829,270.296 260.832,272.187 258.911,274.144 C257.01,276.124 254.917,277.909 252.913,279.777 C250.918,281.661 248.752,283.351 246.686,285.143 C244.597,286.916 242.371,288.518 240.223,290.21 C238,291.806 235.807,293.441 233.546,294.972 C231.282,296.499 229.027,298.038 226.7,299.472 C224.395,300.938 222.02,302.269 219.667,303.646 C224.12,300.488 228.505,297.282 232.765,293.917 C234.905,292.243 236.963,290.472 239.052,288.747 C241.073,286.936 243.125,285.169 245.11,283.332 C247.065,281.455 249.119,279.691 250.984,277.732 C252.874,275.796 254.829,273.931 256.622,271.91 C258.44,269.915 260.336,267.993 262.042,265.9 C263.765,263.821 265.594,261.838 267.2,259.668 C268.815,257.511 270.576,255.469 272.109,253.252 C273.655,251.046 275.269,248.891 276.756,246.648 L281.107,239.852 L285.145,232.867 C286.529,230.559 287.637,228.101 288.896,225.726 C290.171,223.355 291.272,220.902 292.344,218.434 C293.417,215.971 294.59,213.548 295.505,211.018 L298.424,203.497 L298.823,202.456 L299.914,202.073 L306.212,199.853 L309.364,198.746 L312.389,197.343 L318.46,194.532 L324.267,191.203 C326.248,190.158 328.08,188.875 329.911,187.591 C331.725,186.283 333.662,185.137 335.376,183.695 L340.639,179.506 C342.373,178.081 343.971,176.503 345.649,175.005 C347.347,173.53 348.911,171.909 350.466,170.281 C352.032,168.669 353.654,167.096 355.103,165.367 C356.567,163.655 358.133,162.021 359.522,160.241 L363.746,154.935 C365.08,153.109 366.467,151.319 367.761,149.459 C369.015,147.572 370.364,145.742 371.542,143.803 C372.773,141.898 373.947,139.955 375.091,137.992 M85.023,239.413 C85.023,241.355 83.449,242.929 81.508,242.929 C79.568,242.929 77.995,241.355 77.995,239.413 C77.995,237.473 79.568,235.901 81.508,235.901 C83.449,235.901 85.023,237.473 85.023,239.413 M434.243,159.303 L434.216,159.329 C433.922,159.585 433.602,159.863 433.261,160.159 C432.575,160.755 431.795,161.428 430.949,162.163 C429.118,163.58 427.024,165.29 424.619,167.01 C422.26,168.77 419.676,170.584 417.085,172.403 C411.899,176.026 406.622,179.553 402.658,182.191 C398.673,184.811 396.022,186.559 396.022,186.559 C396.022,186.559 398.947,185.321 403.336,183.466 C407.719,181.587 413.566,179.066 419.375,176.419 C422.278,175.089 425.182,173.757 427.889,172.419 C430.608,171.144 433.12,169.771 435.292,168.644 L435.445,168.555 L435.999,168.457 C437.284,168.234 438.418,168.122 439.366,168.122 C440.655,168.122 441.253,168.331 441.467,168.431 C441.478,168.692 441.39,169.162 441.269,169.491 C439.123,173.243 436.241,178.249 433.876,182.301 C433.781,182.407 433.691,182.502 433.581,182.625 C433.387,182.828 433.239,183.047 432.958,183.304 C432.665,183.561 432.348,183.836 432.007,184.132 C431.32,184.732 430.542,185.403 429.696,186.136 C427.864,187.556 425.766,189.266 423.366,190.985 C421.006,192.745 418.422,194.559 415.831,196.376 C410.642,200.002 405.368,203.528 401.4,206.167 C397.42,208.785 394.763,210.533 394.763,210.533 C394.763,210.533 397.692,209.299 402.083,207.441 C406.466,205.562 412.313,203.039 418.121,200.395 C421.025,199.063 423.927,197.73 426.635,196.392 C427.64,195.922 428.604,195.438 429.542,194.96 L432.601,195.092 C435.646,195.222 437.796,194.679 439.396,194.083 C438.281,196.666 436.121,200.395 433.275,204.205 C432.78,204.617 432.348,204.976 432.293,205.04 C432.177,205.192 431.134,206.191 430.663,206.597 C429.895,207.371 428.346,208.534 426.46,209.871 C422.609,212.555 417.088,215.95 411.54,219.309 C405.989,222.696 400.441,226.08 396.279,228.618 C392.165,231.236 389.421,232.98 389.421,232.98 C389.421,232.98 392.426,231.754 396.933,229.91 C401.47,228.151 407.523,225.804 413.578,223.461 C416.932,222.173 420.276,220.871 423.379,219.614 L427.52,219.655 C431.01,219.691 433.348,219.803 434.911,219.936 C433.167,222.476 430.304,226.045 427.246,228.942 C424.984,230.088 421.156,232.022 418.953,233.116 C417.212,233.947 415.173,234.912 412.996,235.949 C410.82,236.924 408.504,238.251 406.215,239.452 C403.954,240.718 401.596,241.808 399.604,243.122 C397.583,244.401 395.698,245.596 394.083,246.617 C390.854,248.663 388.699,250.027 388.699,250.027 C388.699,250.027 391.103,249.182 394.713,247.921 C396.514,247.287 398.62,246.546 400.875,245.756 C403.123,244.922 405.594,244.418 408,243.72 C410.43,243.085 412.76,242.369 415.116,241.904 C417.141,241.457 419.036,241.042 420.717,240.672 C422.651,243.072 425.115,243.781 426.618,244.185 C424.888,246.959 418.828,252.451 413.037,255.38 C412.621,255.461 412.073,255.529 411.83,255.638 C411.586,255.703 411.335,255.771 411.075,255.842 C410.747,255.9 410.409,255.954 410.064,256.012 C409.242,256.114 408.376,256.22 407.483,256.33 C406.542,256.469 405.56,256.611 404.576,256.84 C403.586,257.02 402.613,257.338 401.647,257.599 C397.812,258.841 394.412,260.615 391.951,262.1 C390.711,262.798 389.762,263.486 389.062,263.916 C388.371,264.363 387.978,264.619 387.978,264.619 C387.978,264.619 388.429,264.494 389.221,264.281 C390.021,264.084 391.148,263.711 392.514,263.43 C393.869,263.119 395.443,262.794 397.144,262.557 C397.982,262.397 398.867,262.373 399.743,262.271 C400.619,262.18 401.508,262.202 402.38,262.163 C403.257,262.21 404.119,262.197 404.959,262.312 C405.796,262.379 406.619,262.519 407.417,262.651 C407.715,262.706 407.985,262.757 408.276,262.811 L409.828,263.523 C411.489,264.284 413.749,264.945 415.935,265.585 C416.07,265.624 416.209,265.665 416.352,265.706 C412.649,268.46 406.405,272.438 399.871,275.086 L392.477,278.083 L399.524,281.822 C402.959,283.645 405.145,284.95 406.528,285.852 C402.997,287.803 396.275,290.402 389.639,290.402 L389.634,290.402 C389.237,290.402 388.843,290.392 388.448,290.371 L372.665,289.637 L386.541,297.389 C386.841,297.555 387.474,298.348 387.35,298.972 C387.135,300.053 384.422,302.37 375.697,303.397 L366.627,304.409 L373.797,309.982 C373.913,310.149 374.014,310.885 373.582,311.704 C372.769,313.248 370.692,313.877 367.964,313.395 L355.593,311.212 L364.291,319.324 C362.715,319.752 359.671,320.265 353.928,320.419 L345.276,320.652 L351.342,326.715 C350.131,327.888 346.099,329.516 342.858,329.516 C342.296,329.516 341.973,329.459 341.831,329.427 L331.108,326.848 L338.049,335.342 C338.1,335.427 338.235,335.825 338.087,336.086 C337.812,336.57 336.279,337.484 332.437,337.484 C331.307,337.484 330.045,337.404 328.686,337.249 L322.667,336.565 L324.776,342.243 L324.831,342.398 C324.282,342.594 323.07,342.876 320.659,342.876 C317.821,342.876 313.977,342.492 308.9,341.7 L303.139,340.907 L304.745,346.411 C304.425,346.644 303.443,347.098 301.468,347.098 C299.46,347.098 295.142,346.596 288.782,343.241 L285.097,341.294 L283.581,345.176 C282.744,347.313 281.558,347.75 280.036,347.75 C278.186,347.75 274.771,346.991 268.984,343.374 L253.792,333.882 L263.947,348.641 C270.539,358.222 281.383,375.759 290.951,391.231 C299.148,404.487 306.225,415.93 308.723,419.262 L309.24,419.95 L310.005,420.342 C343.95,437.718 395.324,464.277 400.651,467.719 C402.262,469.931 403.872,472.902 403.104,475.247 C402.283,477.769 398.882,479.283 397.664,479.647 L397.565,479.674 L367.88,466.53 L403.864,493.122 L411.633,500.351 C414.089,505.58 413.349,507.508 413.053,507.986 C412.401,509.035 410.065,509.528 406.955,509.323 L362.549,481.752 L400.342,514.837 C403.25,522.955 405.078,531.48 404.362,533.682 C403.462,534.484 402.257,534.874 400.69,534.875 C397.887,534.875 394.644,533.614 392.334,532.477 L350.8,491.381 L383.603,535.521 C381.055,544.418 379.03,544.898 375.836,544.898 C374.419,544.898 372.702,544.675 370.892,544.362 L331.707,494.596 L354.431,533.924 L354.362,534.059 C351.552,539.508 346.713,542.761 341.418,542.761 C340.168,542.761 338.875,542.589 337.555,542.249 L278.897,441.817 L278.262,440.728 L277.095,440.25 C274.458,439.17 268.958,437.663 260.629,435.38 C255.441,433.958 249.304,432.271 242.544,430.331 C242.32,429.077 242.032,428.014 241.799,427.146 C241.316,425.462 240.923,424.543 240.923,424.543 C240.923,424.543 240.889,425.532 240.83,427.26 C240.729,428.96 240.676,431.457 240.135,434.122 C239.993,434.775 239.773,435.427 239.528,435.949 C239.312,436.497 238.865,436.734 238.998,436.577 C239.212,436.542 238.93,436.577 238.709,436.571 L238.689,436.571 C239.049,436.552 238.782,436.566 238.857,436.56 L238.826,436.552 L238.774,436.542 L238.659,436.52 L238.438,436.478 C238.158,436.455 237.813,436.291 237.489,436.214 C236.817,435.991 236.109,435.651 235.392,435.262 C232.533,433.581 229.543,431.206 226.707,428.668 C223.828,426.164 221.041,423.493 218.403,420.997 C215.758,418.483 213.293,416.14 211.176,414.125 C206.927,410.087 203.907,407.495 203.907,407.495 C203.907,407.495 205.748,411.035 209.219,415.835 C210.089,417.035 211.025,418.339 212.089,419.657 C212.529,420.202 212.984,420.771 213.44,421.34 C214.092,422.151 214.762,422.97 215.495,423.774 C217.917,426.588 220.685,429.435 223.661,432.116 C225.144,433.464 226.742,434.701 228.36,435.887 C229.508,436.734 230.726,437.478 231.984,438.159 C231.987,438.494 232.001,438.819 231.999,439.167 C231.987,439.881 231.943,440.618 231.834,441.314 C231.738,441.931 231.571,442.595 231.374,442.869 C231.216,442.879 231.016,442.886 231.231,442.842 L230.769,442.754 C230.13,442.589 229.407,442.348 228.673,441.981 C227.19,441.274 225.711,440.193 224.191,439.109 C222.684,437.99 221.201,436.742 219.74,435.448 C216.763,432.924 213.929,430.166 211.218,427.631 C208.51,425.056 205.986,422.652 203.822,420.589 C199.472,416.454 196.383,413.799 196.383,413.799 C196.383,413.799 196.766,414.527 197.476,415.727 C160.451,402.009 121.907,382.432 108.732,355.996 C100.668,339.812 99.831,324.367 99.091,310.738 C97.906,288.937 96.86,270.071 63.946,265.907 C64.75,260.718 62.749,254.637 62.017,252.649 C63.403,252.023 63.915,251.021 64.086,250.233 C64.404,248.761 63.755,247.119 62.702,245.805 L62.702,241.361 C62.702,233.691 68.001,220.178 87.862,218.193 C88.944,218.082 90.031,218.029 91.089,218.029 C107.788,218.029 118.487,231.668 127.933,243.703 C129.183,245.295 130.401,246.851 131.599,248.327 C144.199,263.86 171.328,285.387 194.922,294.528 L196.603,295.178 L198.154,294.264 C256.847,259.688 279.637,214.521 287.704,197.589 C328.026,187.579 377.55,119.887 385.52,76.291 C387.039,78.954 388.452,82.498 389.287,85.697 L391.829,95.419 L396.234,86.39 C398.692,81.35 399.959,76.386 400.979,72.396 C401.565,70.113 402.341,67.073 403.017,65.986 C404.572,67.231 406.329,74.03 406.752,80.473 C406.722,80.648 406.696,80.81 406.662,80.993 C406.004,85.137 405.441,90.289 403.794,95.179 C403.442,96.431 402.886,97.571 402.424,98.766 C401.861,99.891 401.323,101.035 400.684,102.07 C399.994,103.057 399.445,104.148 398.688,104.971 C397.951,105.813 397.336,106.743 396.606,107.385 C395.888,108.08 395.232,108.716 394.651,109.281 C394.015,109.804 393.422,110.228 392.957,110.593 C392.009,111.315 391.467,111.724 391.467,111.724 C391.467,111.724 392.085,111.435 393.161,110.931 C393.699,110.672 394.363,110.386 395.098,110.006 C395.818,109.56 396.632,109.056 397.517,108.505 C398.453,107.978 399.251,107.196 400.226,106.464 C401.221,105.751 402.033,104.762 403.01,103.846 C403.933,102.885 404.776,101.79 405.657,100.689 C406.433,99.527 407.324,98.368 407.997,97.112 C410.944,92.17 412.76,86.687 414.196,83.012 C414.378,82.58 414.55,82.142 414.715,81.741 C416.552,79.514 418.527,77.24 420.052,75.638 C420.875,78.953 421.357,84.647 420.606,88.319 C418.68,92.376 416.375,97.104 413.647,101.607 C411.964,104.467 410.093,107.201 408.209,109.68 C407.291,110.939 406.266,112.034 405.362,113.15 C404.413,114.214 403.442,115.155 402.578,116.068 C401.682,116.936 400.796,117.652 400.037,118.337 C399.295,119.044 398.522,119.528 397.932,119.971 C396.73,120.838 396.042,121.331 396.042,121.331 C396.042,121.331 396.802,120.961 398.136,120.309 C398.797,119.974 399.626,119.633 400.499,119.057 C401.377,118.504 402.42,117.916 403.49,117.189 C404.514,116.423 405.676,115.628 406.837,114.706 C407.948,113.738 409.206,112.78 410.365,111.656 C412.738,109.45 415.155,106.956 417.39,104.318 C420.998,100.163 424.202,95.722 426.835,91.983 C428.341,90.702 429.535,89.571 430.492,88.657 C431.239,87.946 431.784,87.438 432.201,87.081 C432.122,92.628 429.484,105.038 427.906,107.375 L425.436,110.672 C423.493,112.746 421.392,114.854 419.237,116.945 C416.911,119.296 414.389,121.396 412.11,123.514 C409.754,125.493 407.499,127.284 405.568,128.866 C401.484,131.758 398.765,133.684 398.765,133.684 C398.765,133.684 401.778,132.255 406.294,130.114 C408.479,128.885 411.079,127.479 413.822,125.885 C416.459,124.18 419.4,122.483 422.147,120.539 C424.938,118.642 427.708,116.702 430.226,114.779 C431.181,114.089 432.083,113.399 432.958,112.716 C435.278,111.494 437.091,110.379 438.451,109.529 C437.186,116.666 433.138,130.613 431.803,133.054 C430.776,133.851 429.686,134.684 428.518,135.517 C426.16,137.278 423.576,139.092 420.988,140.909 C415.798,144.533 410.522,148.06 406.556,150.699 C402.574,153.318 399.92,155.065 399.92,155.065 C399.92,155.065 402.845,153.829 407.24,151.972 C411.624,150.092 417.467,147.572 423.278,144.925 C426.178,143.595 429.085,142.262 431.79,140.927 C433.22,140.253 434.588,139.557 435.886,138.881 L441.852,137.356 C439.475,145.381 436.484,154.413 434.243,159.303 M245.731,448.355 C246.106,449.29 246.515,450.216 246.907,451.142 C246.64,450.935 246.361,450.688 246.084,450.438 C244.711,449.148 243.353,447.784 242.131,446.852 C241.825,446.617 241.524,446.405 241.221,446.228 C240.974,446.088 240.76,445.987 240.498,445.888 L240.035,445.474 L234.898,442.317 C234.911,442.029 234.917,441.747 234.92,441.479 C234.898,440.755 234.816,440.096 234.72,439.459 C235.278,439.671 235.844,439.864 236.445,440.008 C236.661,440.05 236.871,440.094 237.084,440.134 L245.731,448.355 z M247.418,452.36 C247.57,452.704 247.702,453.053 247.857,453.399 L247.909,453.509 C247.644,453.528 247.381,453.547 247.109,453.554 C246.917,453.546 246.709,453.547 246.54,453.52 C246.426,453.517 246.408,453.489 246.415,453.481 C246.361,453.461 246.204,453.404 246.35,453.445 C246.334,453.352 245.936,452.94 245.709,452.62 C245.245,452.014 244.793,451.391 244.356,450.781 C244.672,450.993 244.993,451.213 245.314,451.429 C245.728,451.697 246.121,451.959 246.619,452.198 C246.709,452.306 247.175,452.387 247.418,452.36 M231.467,442.862 L231.471,442.86 L231.467,442.862 M231.321,442.949 C231.282,443.044 231.17,443.01 231.34,442.92 L231.321,442.949 M62.1,260.751 C62.304,262.396 62.349,264.098 62.093,265.678 L61.739,265.639 L61.312,265.693 C61.229,265.704 55.657,266.392 48.551,266.981 L62.1,260.751 z M54.602,253.75 L55.255,252.91 C56.552,253.131 57.7,253.252 58.647,253.252 C59.232,253.252 59.742,253.205 60.212,253.139 C60.543,254.03 61.303,256.225 61.805,258.841 L45.129,266.506 C47.54,263.118 50.76,258.713 54.602,253.75 M55.123,246.135 C55.486,245.509 56.406,244.468 57.884,244.916 L58.968,245.251 L58.954,245.297 C60.748,245.729 62.606,248.275 62.268,249.837 C61.954,251.28 59.523,251.732 55.738,251.108 L54.892,249.628 C54.367,248.706 54.462,247.272 55.123,246.135 M452.486,126.95 L443.471,129.258 L441.59,127.525 C444.197,119.074 446.86,107.927 446.098,104.355 C445.74,102.672 444.793,101.795 444.066,101.36 C443.104,100.782 442.07,100.49 440.991,100.49 C440.66,100.49 440.339,100.521 440.026,100.57 L438.119,98.819 C439.486,92.253 440.193,85.127 438.837,81.98 C438.08,80.221 436.654,79.095 434.923,78.896 C432.719,78.637 431.062,79.058 429.607,79.85 L428.094,78.458 C427.479,73.069 425.797,67.824 422.231,66.635 L421.551,66.427 L420.95,66.427 C419.732,66.427 418.287,66.427 413.195,72.046 C411.99,65.966 409.485,59.559 404.277,58.565 C403.775,58.47 403.277,58.422 402.794,58.422 C396.872,58.422 395.366,64.315 393.77,70.552 C393.475,71.7 393.169,72.896 392.83,74.123 C390.74,70.058 387.749,66.077 383.754,64.989 L379.385,63.797 L379.062,68.314 C376.184,108.618 323.969,182.577 284.367,190.713 L282.547,191.09 L281.751,192.768 C274.729,207.594 253.491,252.443 195.943,286.922 C173.908,277.884 149.071,258.051 137.379,243.639 C136.205,242.19 135.012,240.67 133.787,239.107 C123.817,226.4 111.406,210.586 91.089,210.586 C89.788,210.586 88.449,210.653 87.118,210.787 C64.942,213.005 57.102,227.175 55.561,237.466 C52.745,237.938 50.246,239.706 48.685,242.396 C47.173,245.002 46.753,248.102 47.443,250.849 C39.331,261.43 34.324,269.032 34.104,269.364 L30.145,275.39 L37.352,275.129 C48.134,274.734 59.423,273.421 61.799,273.132 C89.766,276.244 90.479,289.404 91.659,311.141 C92.399,324.779 93.32,341.752 102.071,359.316 C117.495,390.265 163.729,411.943 204.778,426.234 C205.857,427.598 207.031,429.011 208.285,430.441 C209.562,431.846 210.844,433.345 212.281,434.743 C213.703,436.154 215.167,437.572 216.712,438.935 C218.279,440.264 219.899,441.549 221.593,442.739 C223.282,443.936 225.104,444.934 227.07,445.725 C228.06,446.1 229.105,446.436 230.255,446.529 L231.136,446.558 C231.943,446.537 231.559,446.539 232.212,446.41 C232.707,446.269 233.063,446.056 233.36,445.822 L237.279,448.355 C237.961,450.048 238.652,451.725 239.406,453.399 C239.853,454.367 240.266,455.297 240.864,456.32 L241.124,456.726 L241.325,456.986 C241.43,457.08 241.336,457.097 241.792,457.402 C241.981,457.507 242.197,457.577 242.392,457.598 L242.534,457.61 L242.541,457.61 L242.592,457.606 L242.784,457.589 L243.17,457.553 L244.707,457.414 L249.761,456.972 L249.776,456.986 C249.881,457.08 249.788,457.097 250.244,457.402 C250.431,457.507 250.649,457.577 250.841,457.598 L250.987,457.61 L250.99,457.61 L251.042,457.606 L251.233,457.589 L251.619,457.553 L253.16,457.414 L259.317,456.873 C259.808,456.834 260.391,456.765 260.954,456.675 L261.77,456.546 C262.049,456.312 262.117,456.119 262.295,455.903 C262.934,455.084 262.731,454.824 261.981,455.531 C261.817,455.679 261.575,455.941 261.473,456.008 L260.749,455.968 L259.3,455.894 C259.3,455.894 255.032,455.308 255.132,455.277 C255.399,455.222 255.616,455.139 255.84,455.072 C256.7,454.755 259.174,453.983 259.799,453.677 C261.037,453.061 260.862,453.057 259.51,453.229 C258.84,453.31 256.36,453.542 255.559,453.554 C255.368,453.546 255.159,453.547 254.991,453.52 C254.879,453.517 254.858,453.489 254.868,453.481 C254.812,453.461 254.655,453.404 254.798,453.445 C254.785,453.352 254.388,452.94 254.16,452.62 C253.698,452.014 253.244,451.391 252.807,450.781 C253.124,450.993 253.444,451.213 253.766,451.429 C254.178,451.697 254.57,451.959 255.071,452.198 C255.182,452.332 255.911,452.435 256.013,452.316 L256.676,452.141 C257.11,452.055 257.543,451.832 257.935,451.688 C258.328,451.524 258.698,451.372 259.038,451.232 C260.336,450.618 260.283,450.468 258.907,450.861 C258.567,450.943 258.204,451.028 257.815,451.117 C257.426,451.191 257.06,451.334 256.602,451.353 L255.928,451.414 C255.584,451.438 255.832,451.442 255.557,451.299 C255.237,451.077 254.879,450.751 254.536,450.438 C253.164,449.148 251.804,447.784 250.583,446.852 C250.274,446.617 249.973,446.405 249.671,446.228 C249.424,446.088 249.213,445.987 248.95,445.888 L248.486,445.474 L242.77,438.135 C248.653,439.808 254.029,441.287 258.661,442.558 C265.106,444.324 270.383,445.771 273.142,446.719 L332.573,548.479 L333.897,548.922 C342.956,551.967 351.981,549.267 357.831,542.241 L363.986,550.569 L364.058,550.584 L365.362,550.863 C369.513,551.75 372.883,552.34 375.836,552.34 C383.854,552.34 387.453,547.926 390.12,539.684 C392.956,540.98 396.819,542.319 400.693,542.319 C404.334,542.318 407.483,541.094 409.8,538.78 C413.455,535.13 411.703,525.682 408.888,516.832 C415.095,516.693 418.013,514.101 419.373,511.917 C421.691,508.188 421.238,502.988 418.021,496.46 L417.719,495.846 L405.262,484.259 L405.232,484.054 C407.21,482.617 409.187,480.542 410.16,477.618 C411.648,473.146 410.343,468.166 406.284,462.821 C405.657,461.997 404.358,460.286 314.189,414.124 C311.463,410.253 304.563,399.091 297.282,387.317 C290.516,376.375 283.115,364.41 276.992,354.886 C281.947,355.837 285.9,354.543 288.502,351.375 C293.181,353.454 297.612,354.541 301.468,354.541 C305.671,354.541 308.986,353.207 310.801,350.786 C311.083,350.409 311.326,350.011 311.525,349.6 C315.223,350.089 318.179,350.32 320.659,350.32 C324.081,350.32 328.895,349.935 331.21,346.606 C331.525,346.154 331.829,345.595 332.046,344.923 C332.178,344.925 332.308,344.927 332.437,344.927 C340.452,344.927 343.6,341.835 344.829,339.242 C345.22,338.421 345.446,337.582 345.542,336.756 C350.563,336.045 356.743,333.466 358.501,329.218 C358.719,328.691 358.869,328.155 358.946,327.618 C367.18,326.978 371.194,325.237 372.45,321.918 C372.589,321.547 372.704,321.133 372.763,320.679 C377.205,319.697 379.799,316.621 380.797,313.712 C381.221,312.481 381.39,311.226 381.326,310.024 C389.31,308.35 393.793,305.09 394.672,300.306 C394.852,299.331 394.849,298.376 394.702,297.464 C403.635,296.176 412.338,291.891 414.717,288.848 C415.984,287.227 415.854,285.713 415.666,284.954 C415.309,283.524 414.489,282.009 409.361,278.838 C412.384,277.241 415.46,275.393 418.319,273.439 C426.705,267.714 427.023,265.701 426.57,263.67 C426.063,261.38 424.123,260.349 420.926,259.318 C428.136,254.555 435.353,247.387 434.393,242.391 C433.684,238.71 430.801,237.629 429.063,237.139 C436.079,231.741 442.82,222.337 443.737,219.155 C444.236,217.413 443.741,216.18 443.232,215.442 C442.113,213.839 440.269,212.99 436.101,212.57 C442.807,204.771 448.076,195.181 447.678,190.54 C447.476,188.16 446.113,187.006 445.319,186.529 C443.765,185.598 441.989,185.369 440.528,185.675 C443.471,180.628 446.825,174.762 447.837,172.995 L447.979,172.722 C448.2,172.252 450.065,168.007 447.768,164.399 C446.87,162.989 445.105,161.353 441.672,160.842 C445.642,151.626 449.807,136.747 450.798,133.125 L452.486,126.95" fill="#0B0B09"/>
  </g>
</svg>
